<svg width="403.2" height="103.6903478367521" viewBox="0 0 370 95.15235292559096" class="looka-1j8o68f"><defs id="SvgjsDefs1460"></defs><g id="SvgjsG1461" featurekey="symbolFeature-0" transform="matrix(1.197517475521479,0,0,1.197517475521479,-7.480261522971939,-9.907060649721204)" fill="#522546"><polygon xmlns="http://www.w3.org/2000/svg" points="24.115,87.73 48.001,87.728 71.886,87.728 72.321,85.417 65.659,85.447 66.098,81.101 73.056,80.949 76.131,55.761   47.999,55.761 47.213,55.761 19.869,55.761 22.944,80.949 29.902,81.101 30.341,85.447 23.679,85.417 "></polygon><path xmlns="http://www.w3.org/2000/svg" d="M7.63,83.594c0.951,1.397,2.393,2.449,4.375,3.188l9.898,0.949h0.686l-0.72-3.823l6.813,0.032l-0.138-1.368l-6.93-0.151  l-3.439-28.159h29.081h0.744h29.827L74.387,82.42l-6.93,0.151l-0.138,1.368l6.813-0.032l-0.72,3.82h0.757l9.826-0.945  c2.6-0.97,4.277-2.473,5.125-4.594c2.189-5.473-1.835-13.609-3.998-17.979c-0.547-1.106-0.979-1.979-1.186-2.558  c-0.397-1.112-0.671-2.503-0.961-3.975c-0.669-3.396-1.428-7.246-3.91-9.232c-2.969-2.375-17.009-4.164-22.39-4.676  c-2.617,1.305-5.556,2.058-8.674,2.058s-6.057-0.753-8.674-2.059c-5.38,0.513-19.422,2.302-22.392,4.677  c-2.482,1.986-3.241,5.836-3.91,9.232c-0.29,1.472-0.564,2.863-0.961,3.975c-0.207,0.579-0.639,1.453-1.187,2.559  c-0.952,1.923-2.263,4.577-3.248,7.411c-1.253,3.605-1.976,7.504-0.75,10.569C7.082,82.692,7.333,83.159,7.63,83.594z"></path><path xmlns="http://www.w3.org/2000/svg" d="M37.122,40.639c3.028,2.303,6.791,3.687,10.879,3.687s7.852-1.384,10.879-3.687c4.333-3.295,7.147-8.488,7.147-14.339  c0-0.382-0.034-0.756-0.058-1.132c-0.589-9.412-8.411-16.895-17.969-16.895s-17.38,7.482-17.97,16.895  c-0.023,0.376-0.057,0.75-0.057,1.132C29.974,32.15,32.789,37.343,37.122,40.639z"></path></g><g id="SvgjsG1462" featurekey="nameFeature-0" transform="matrix(1.4689484260491967,0,0,1.4689484260491967,118.23726216892064,-5.867981543914645)" fill="#522546"><path d="M21.64 37.56 l0.92 1.96 l-16.24 2.76 l-0.24 -1.88 l-1.8 0.04 l0.28 -2 l-1.92 -0.08 l0.6 -20.6 l-2 0 l0.96 -2 l-1 -1.28 l0.6 -1.52 l-0.4 -2.04 l18.64 -0.92 l0.68 3.16 l-1.12 1.24 l0.92 2.6 l-10.24 0.48 l-0.16 5.4 l9.32 -1.12 l-0.88 2.6 l1.4 1.24 l-0.76 3.2 l-9.28 1.16 l-0.12 4.56 l12.16 -2 l-0.8 2.36 l1.24 1.2 z M50.16 10.600000000000001 l0.96 30.84 l-2.8 -1.04 l-1.72 1.72 l-2.44 -1.04 l-0.4 -10.44 l-5.72 13.72 l-5.92 -14.36 l0 11.08 l-1.92 -0.24 l-1.76 0.76 l-1.16 -1.24 l-2.16 0.96 l0.2 -31.16 l2.04 1.2 l1.6 -1.6 l2.88 1.04 l6.04 15.52 l5.56 -16.04 l1.48 0.76 l1.68 -2.28 l1.56 1.84 l2 0 z M67.88 23.08 c4.92 -3.2 2.92 -7 -2.84 -6.52 c-0.48 0.04 -1.04 0.08 -1.64 0.12 l0.32 9.08 c1.4 -0.88 2.76 -1.76 4.16 -2.68 z M77.16 15.2 c3.48 8.4 -4.48 14.12 -13.16 18.56 l0.24 6.8 l-1.96 0.2 l-1.4 0.88 l-1.8 -1.28 l-1.84 1 l-0.8 -24.04 c-1.16 0.12 -1.88 0.2 -1.88 0.2 l0.64 -2.28 l-1.48 -1.72 l0.6 -3 s7.36 -1 11.16 -0.96 c4.52 0.04 9.6 0.76 11.68 5.64 z M97.04 36.28 l0.16 2.68 l-14.52 2.48 l-0.24 -2.16 l-2.08 0 l0.28 -28.52 l2.08 0.48 l2.32 -1.72 l2.6 1.2 l-0.16 22.56 l8.32 -1.2 l1.2 1.8 l-0.8 1.68 z M117.76000000000002 10.600000000000001 l2.56 -0.76 l-0.24 30.48 l-2.36 0.56 l-0.92 -0.84 l-1.48 1.4 l-2.24 -1.24 l0.08 -8.64 l-5.52 0.48 l0.12 8.32 l-2 1.4 l-2.88 -1.52 l-2.08 1.4 l-0.48 -30.44 l1.88 0.72 l1.64 -1.92 l1.76 1.4 l1.72 -0.08 l0.2 13.72 l5.68 -0.52 l0.12 -13.96 l2.4 -1.56 z M143.32000000000002 10.2 l0.44 30.8 l-2.72 -1 l-2.2 1.24 l-2.08 -0.76 l0 -1.76 l-10.36 3.2 l-0.24 -2 l-1.52 -0.08 l0.24 -2.24 l-1.32 -0.12 l0.52 -26.16 l2 -1.28 l2.08 1.32 l2.96 -1.4 l-0.52 23.48 l6.04 -1.92 l-0.32 -20.88 l2.08 -0.92 l1.48 1.48 l0.8 -0.64 z M164.36000000000004 30.119999999999997 c0.6 -1.88 -2.56 -2.4 -4.52 -2.36 c-1.52 0.04 -2.88 0.12 -3.96 0.44 l0.04 6.24 c3.56 -0.32 7.56 -1.68 8.44 -4.32 z M162.00000000000003 16.84 c0.24 -0.44 -0.48 -0.6 -1.6 -0.6 c-1.4 -0.04 -3.12 0.12 -4.6 0.36 l0.04 4.32 c2.08 -0.68 5.24 -2.28 6.16 -4.08 z M171.00000000000003 32.2 c-2.64 8.4 -12.92 9.08 -18.04 9.44 c-0.32 -0.44 -0.76 -1.08 -1 -1.44 l-1.72 -0.56 l0.36 -1.76 l-1.24 -0.28 l-0.16 -20.08 l-1.88 0.28 l-0.16 -1.92 l-0.84 -0.88 l0.88 -2.16 l-1.48 -1.84 c3.64 -0.6 7.52 -1.28 11.36 -1.44 c3.76 -0.2 7.8 0.08 10.12 1.92 c4 3.12 1.36 8.16 -1.48 11.12 c3.44 1.36 6.84 4.64 5.28 9.6 z"></path></g><g id="SvgjsG1463" featurekey="sloganFeature-0" transform="matrix(0.6451821229736658,0,0,0.6451821229736658,126,75.52891948927282)" fill="#522546"><path d="M6.92 5.68 l0 1.92 l-2.38 0 l0 12.42 l-1.92 0 l0 -12.42 l-2.62 0 l0 -1.92 l6.92 0 z M13.715 5.720000000000001 l1.9 0 l0 14.26 l-1.9 0 l0 -7.54 l-1.7 0 l0 7.54 l-1.9 0 l0 -14.26 l1.9 0 l0 4.84 l1.7 0 l0 -4.84 z M23.81 12.46 l-2.76 0 l0 5.64 l2.78 0 l0 1.9 l-4.68 0 l0 -14.28 l4.68 0 l0 1.9 l-2.78 0 l0 2.94 l2.76 0 l0 1.9 z M36.58 19.96 c-1.48 0 -2.68 -1.2 -2.68 -2.68 l0 -8.88 c0 -1.48 1.2 -2.68 2.68 -2.68 s2.68 1.2 2.68 2.68 l0 0.8 l-1.9 0 l0 -0.8 c0 -0.42 -0.36 -0.78 -0.78 -0.78 s-0.78 0.36 -0.78 0.78 l0 8.88 c0 0.42 0.36 0.78 0.78 0.78 s0.78 -0.36 0.78 -0.78 l0 -1.28 l1.9 0 l0 1.28 c0 1.48 -1.2 2.68 -2.68 2.68 z M45.495000000000005 20.02 c-1.5 0 -2.7 -1.22 -2.7 -2.7 l0 -8.98 c0 -1.48 1.2 -2.68 2.7 -2.68 c1.48 0 2.68 1.2 2.68 2.68 l0 8.98 c0 1.48 -1.2 2.7 -2.68 2.7 z M45.495000000000005 7.5600000000000005 c-0.44 0 -0.78 0.36 -0.78 0.78 l0 8.98 c0 0.44 0.34 0.78 0.78 0.78 c0.42 0 0.78 -0.34 0.78 -0.78 l0 -8.98 c0 -0.42 -0.36 -0.78 -0.78 -0.78 z M57.51 5.68 l3.34 0 l0 14.28 l-1.88 0 l0 -11.3 l-1.78 11.34 l-0.74 0 l-0.18 -0.04 l-0.16 0.04 l-0.74 0 l-1.76 -11.34 l0 11.3 l-1.9 0 l0 -14.28 l3.36 0 l1.22 8.08 z M66.28500000000001 17 l0 2.98 l-1.9 0 l0 -14.26 l2.96 0 c1.32 0 2.38 1.08 2.38 2.4 l0 6.5 c0 1.32 -1.06 2.38 -2.38 2.38 l-1.06 0 z M66.28500000000001 7.619999999999999 l0 7.48 l1.06 0 c0.28 0 0.48 -0.2 0.48 -0.48 l0 -6.5 c0 -0.28 -0.2 -0.5 -0.48 -0.5 l-1.06 0 z M77.84 20 l-0.72 -4.94 l-2.02 0 l-0.66 4.94 l-1.92 0 l2.16 -14.3 l2.58 0 l2.5 14.3 l-1.92 0 z M75.36000000000001 13.16 l1.48 0 l-0.76 -5.2 z M87.93500000000002 16.72 l0.08 -11.08 l1.92 0 l-0.12 14.44 l-2.98 0 l-1.62 -11.18 l0 11.18 l-1.92 0 l0 -14.44 l3.1 0 z M100.55000000000001 5.720000000000001 l-2.68 8.68 l0 5.6 l-1.94 0 l0 -5.62 l-2.46 -8.66 l2 0 l1.46 5.14 l1.6 -5.14 l2.02 0 z M114.22 5.720000000000001 l1.9 0 l0 14.26 l-1.9 0 l0 -7.54 l-1.7 0 l0 7.54 l-1.9 0 l0 -14.26 l1.9 0 l0 4.84 l1.7 0 l0 -4.84 z M124.63499999999999 20 l-0.72 -4.94 l-2.02 0 l-0.66 4.94 l-1.92 0 l2.16 -14.3 l2.58 0 l2.5 14.3 l-1.92 0 z M122.155 13.16 l1.48 0 l-0.76 -5.2 z M132.09 20.12 c-1.52 0 -2.74 -1.24 -2.74 -2.74 l0 -2.18 l1.94 0 l0 2.18 c0 0.44 0.36 0.8 0.8 0.8 s0.78 -0.36 0.78 -0.8 l0 -1.9 l-3.52 -4.86 l0 -2.48 c0 -1.52 1.22 -2.76 2.74 -2.76 c1.5 0 2.72 1.24 2.72 2.76 l0 2.16 l-1.94 0 l0 -2.16 c0 -0.46 -0.34 -0.8 -0.78 -0.8 s-0.8 0.34 -0.8 0.8 l0 1.82 l3.52 4.86 l0 2.56 c0 1.5 -1.22 2.74 -2.72 2.74 z M149.51999999999998 16.72 l0.08 -11.08 l1.92 0 l-0.12 14.44 l-2.98 0 l-1.62 -11.18 l0 11.18 l-1.92 0 l0 -14.44 l3.1 0 z M159.715 12.46 l-2.76 0 l0 5.64 l2.78 0 l0 1.9 l-4.68 0 l0 -14.28 l4.68 0 l0 1.9 l-2.78 0 l0 2.94 l2.76 0 l0 1.9 z M167.25 20 l-1.98 0 l-2 -14.28 l1.92 0 l1.04 7.36 l0.96 -7.36 l1.92 0 z M177.16500000000002 12.46 l-2.76 0 l0 5.64 l2.78 0 l0 1.9 l-4.68 0 l0 -14.28 l4.68 0 l0 1.9 l-2.78 0 l0 2.94 l2.76 0 l0 1.9 z M186.20000000000002 20.04 l-2.04 0 l-1.1 -3.02 l-0.44 0 l0 3.02 l-1.9 0 l0 -14.32 l2.98 0 c1.32 0 2.38 1.06 2.38 2.38 l0 6.54 c0 0.86 -0.44 1.6 -1.12 2.02 z M182.62000000000003 7.619999999999999 l0 7.5 l1.08 0 c0.26 0 0.48 -0.22 0.48 -0.48 l0 -6.54 c0 -0.26 -0.22 -0.48 -0.48 -0.48 l-1.08 0 z M200.93 11.52 c0.44 0.44 0.72 1.04 0.72 1.7 l0 4.38 c0 1.32 -1.08 2.4 -2.4 2.4 l-2.96 0 l-0.02 -14.24 l2.64 0 c1.46 0.06 2.32 1.46 2.3 2.78 l-0.02 1.98 c0 0.36 -0.1 0.7 -0.26 1 z M199.25 18.08 c0.28 0 0.5 -0.22 0.5 -0.48 l-0.02 -4.38 c0 -0.28 -0.22 -0.48 -0.48 -0.48 l-1.06 0 l0 5.34 l1.06 0 z M198.17000000000002 7.66 l0 3.16 l0.8 0 c0.16 0 0.32 -0.14 0.32 -0.32 l0.02 -1.98 c0 -0.4 -0.2 -0.84 -0.48 -0.86 l-0.66 0 z M209.845 12.46 l-2.76 0 l0 5.64 l2.78 0 l0 1.9 l-4.68 0 l0 -14.28 l4.68 0 l0 1.9 l-2.78 0 l0 2.94 l2.76 0 l0 1.9 z M218.06 12.46 l-2.76 0 l0 5.64 l2.78 0 l0 1.9 l-4.68 0 l0 -14.28 l4.68 0 l0 1.9 l-2.78 0 l0 2.94 l2.76 0 l0 1.9 z M226.255 16.72 l0.08 -11.08 l1.92 0 l-0.12 14.44 l-2.98 0 l-1.62 -11.18 l0 11.18 l-1.92 0 l0 -14.44 l3.1 0 z M241.06500000000003 20.12 c-1.52 0 -2.74 -1.24 -2.74 -2.74 l0 -2.18 l1.94 0 l0 2.18 c0 0.44 0.36 0.8 0.8 0.8 s0.78 -0.36 0.78 -0.8 l0 -1.9 l-3.52 -4.86 l0 -2.48 c0 -1.52 1.22 -2.76 2.74 -2.76 c1.5 0 2.72 1.24 2.72 2.76 l0 2.16 l-1.94 0 l0 -2.16 c0 -0.46 -0.34 -0.8 -0.78 -0.8 s-0.8 0.34 -0.8 0.8 l0 1.82 l3.52 4.86 l0 2.56 c0 1.5 -1.22 2.74 -2.72 2.74 z M250.02 20.02 c-1.5 0 -2.7 -1.22 -2.7 -2.7 l0 -8.98 c0 -1.48 1.2 -2.68 2.7 -2.68 c1.48 0 2.68 1.2 2.68 2.68 l0 8.98 c0 1.48 -1.2 2.7 -2.68 2.7 z M250.02 7.5600000000000005 c-0.44 0 -0.78 0.36 -0.78 0.78 l0 8.98 c0 0.44 0.34 0.78 0.78 0.78 c0.42 0 0.78 -0.34 0.78 -0.78 l0 -8.98 c0 -0.42 -0.36 -0.78 -0.78 -0.78 z M265.51000000000005 20.12 c-1.52 0 -2.74 -1.24 -2.74 -2.74 l0 -2.18 l1.94 0 l0 2.18 c0 0.44 0.36 0.8 0.8 0.8 s0.78 -0.36 0.78 -0.8 l0 -1.9 l-3.52 -4.86 l0 -2.48 c0 -1.52 1.22 -2.76 2.74 -2.76 c1.5 0 2.72 1.24 2.72 2.76 l0 2.16 l-1.94 0 l0 -2.16 c0 -0.46 -0.34 -0.8 -0.78 -0.8 s-0.8 0.34 -0.8 0.8 l0 1.82 l3.52 4.86 l0 2.56 c0 1.5 -1.22 2.74 -2.72 2.74 z M277.56500000000005 5.68 l3.34 0 l0 14.28 l-1.88 0 l0 -11.3 l-1.78 11.34 l-0.74 0 l-0.18 -0.04 l-0.16 0.04 l-0.74 0 l-1.76 -11.34 l0 11.3 l-1.9 0 l0 -14.28 l3.36 0 l1.22 8.08 z M289.34000000000003 20 l-0.72 -4.94 l-2.02 0 l-0.66 4.94 l-1.92 0 l2.16 -14.3 l2.58 0 l2.5 14.3 l-1.92 0 z M286.86 13.16 l1.48 0 l-0.76 -5.2 z M299.99500000000006 20.04 l-2.04 0 l-1.1 -3.02 l-0.44 0 l0 3.02 l-1.9 0 l0 -14.32 l2.98 0 c1.32 0 2.38 1.06 2.38 2.38 l0 6.54 c0 0.86 -0.44 1.6 -1.12 2.02 z M296.415 7.619999999999999 l0 7.5 l1.08 0 c0.26 0 0.48 -0.22 0.48 -0.48 l0 -6.54 c0 -0.26 -0.22 -0.48 -0.48 -0.48 l-1.08 0 z M309.99000000000007 5.68 l0 1.92 l-2.38 0 l0 12.42 l-1.92 0 l0 -12.42 l-2.62 0 l0 -1.92 l6.92 0 z"></path></g></svg>
